<svg width="222" height="32" viewBox="0 0 222 32" fill="none" xmlns="http://www.w3.org/2000/svg">
<g id="Frame 1">
<path id="Vector" d="M69.5082 18.6198H77.4204C76.4887 22.5696 73.7946 24.4766 70.0262 24.4766C65.0168 24.4766 61.8742 21.1159 61.8742 16.0922C61.8742 11.0686 64.9821 7.74275 69.543 7.74275C73.0332 7.74275 75.4145 9.54513 76.4887 12.6269L80.702 10.8594C79.2176 6.87468 75.4493 3.54883 69.6125 3.54883C62.6008 3.54883 57.3828 8.78164 57.3828 16.0225C57.3828 23.2634 62.566 28.4613 69.6473 28.4613C76.7286 28.4613 81.7032 23.612 81.7032 15.259H69.5082V18.6198Z" fill="black"/>
<path id="Vector_2" d="M92.723 9.37117C87.505 9.37117 83.396 13.6313 83.396 18.9339C83.396 24.2364 87.1956 28.4966 93.0011 28.4966C97.423 28.4966 99.8425 26.6245 101.223 24.3724L97.7671 22.1551C96.9398 23.7832 95.6257 24.7175 93.1367 24.7175C90.4078 24.7175 88.3011 23.0546 87.7136 20.3179H101.845C101.914 19.9379 101.949 19.2441 101.949 18.5504C101.949 13.8719 98.4589 9.36768 92.723 9.36768V9.37117ZM87.7136 17.2361C88.2663 14.4297 90.2687 12.8365 92.8273 12.8365C95.3858 12.8365 97.2492 14.4994 97.7324 17.2361H87.7136Z" fill="black"/>
<path id="Vector_3" d="M113.258 9.37109C107.557 9.37109 103.548 13.4604 103.548 18.9338C103.548 24.4072 107.557 28.4616 113.258 28.4616C118.959 28.4616 122.967 24.3723 122.967 18.9338C122.967 13.4953 118.924 9.37109 113.258 9.37109ZM113.292 24.5466C110.115 24.5466 107.939 22.1899 107.939 18.9338C107.939 15.6777 110.115 13.321 113.292 13.321C116.47 13.321 118.545 15.6428 118.545 18.8989C118.545 22.1551 116.404 24.5466 113.292 24.5466Z" fill="black"/>
<path id="Vector_4" d="M129.961 20.9417V13.5614H136.09V9.78583H129.961V5.0376H125.54V21.4263C125.54 25.4459 127.785 28.0432 132.138 28.0432H136.229V24.1979H133.003C131.036 24.1979 129.961 23.0544 129.961 20.9417Z" fill="black"/>
<path id="Vector_5" d="M146.286 9.37117C141.068 9.37117 136.959 13.6313 136.959 18.9339C136.959 24.2364 140.759 28.4966 146.565 28.4966C150.986 28.4966 153.406 26.6245 154.786 24.3724L151.331 22.1551C150.503 23.7832 149.189 24.7175 146.7 24.7175C143.971 24.7175 141.865 23.0546 141.277 20.3179H155.408C155.478 19.9379 155.513 19.2441 155.513 18.5504C155.513 13.8719 152.022 9.36768 146.286 9.36768V9.37117ZM141.277 17.2361C141.83 14.4297 143.832 12.8365 146.391 12.8365C148.949 12.8365 150.813 14.4994 151.296 17.2361H141.277Z" fill="black"/>
<path id="Vector_6" d="M174.514 9.7858H169.54L162.493 17.1661V2.71924H158.106V28.0466H162.493V19.4531L169.852 28.0466H174.653L166.706 18.205L174.514 9.7858Z" fill="black"/>
<path id="Vector_7" d="M186.011 9.37109C183.522 9.37109 181.519 10.3751 180.275 11.7975V9.78944H176.127V28.0468H180.515V17.0652C180.549 15.0223 182.347 13.3245 184.728 13.2896C187.217 13.2896 188.84 14.8479 188.84 17.48V28.0468H193.262V16.6468C193.262 12.3169 190.499 9.37109 186.007 9.37109H186.011Z" fill="black"/>
<path id="Vector_8" d="M198.946 0.986816C197.253 0.986816 195.939 2.26974 195.939 3.96753C195.939 5.66532 197.253 6.87852 198.946 6.87852C200.639 6.87852 201.953 5.66532 201.953 3.96753C201.953 2.26974 200.639 0.986816 198.946 0.986816Z" fill="black"/>
<path id="Vector_9" d="M201.122 9.78564H196.735V28.043H201.122V9.78564Z" fill="black"/>
<path id="Vector_10" d="M213.387 18.205L221.194 9.7858H216.22L209.173 17.1661V2.71924H204.783V28.0466H209.173V19.4531L216.529 28.0466H221.334L213.387 18.205Z" fill="black"/>
<g id="Group">
<path id="Vector_11" d="M29.2662 11.9823H32.9789C32.7703 10.403 32.4366 8.93532 31.9985 7.6001C30.8792 7.94523 29.7146 8.34266 28.5083 8.79238C28.8212 9.74063 29.0819 10.8039 29.2662 11.9823Z" fill="#EA4242"/>
<path id="Vector_12" d="M33.0591 7.2825C34.3697 8.59332 35.3952 10.19 36.0174 11.9819H39.8553C39.313 9.89019 38.357 7.9658 37.0847 6.2959C35.8367 6.54342 34.4948 6.87113 33.0626 7.2825H33.0591Z" fill="#EA4242"/>
<path id="Vector_13" d="M49.5993 9.53481C48.9076 8.93169 48.6121 7.99041 48.7546 7.08051C48.8554 6.42859 48.8276 5.81501 48.6642 5.24328C48.6086 5.04107 48.5391 4.84236 48.4522 4.65061C47.2911 2.1754 43.7 1.28641 38.0718 2.08127C36.6744 2.27999 35.1865 2.57632 33.6395 2.96329C31.0914 1.14348 27.9905 0.0522967 24.6428 0.00348962C24.5663 3.40459e-06 24.4864 0 24.4064 0C24.3264 0 24.25 3.40459e-06 24.17 0.00348962C15.8581 0.122021 9.07232 6.64822 8.49525 14.8652C2.56464 19.2683 -1.22108 23.9817 0.360649 27.3529C0.496226 27.6387 0.666563 27.9002 0.86819 28.1442C1.28883 28.6567 1.85547 29.0751 2.55769 29.3958C3.72574 29.9327 5.25879 30.2046 7.12906 30.2046C9.36434 30.2046 12.0724 29.8176 15.1768 29.0402C17.7249 30.86 20.8258 31.9512 24.1735 31.9965C24.25 32 24.3299 32 24.4099 32C24.4898 32 24.5663 32 24.6463 31.9965C33.3371 31.871 40.3662 24.7452 40.3662 15.9983C40.3662 15.3847 40.3314 14.7816 40.2619 14.1889H24.4099V17.8425H29.5027C29.0716 24.3756 26.381 28.3151 24.4099 28.3151C22.2546 28.3151 19.2545 23.6296 19.2545 16.0017C19.2545 14.8792 19.3205 13.8263 19.4387 12.8363C15.3645 14.9594 11.7282 17.3056 8.87765 19.6553C9.53468 22.4617 10.9252 24.9822 12.8407 27.0042C7.7826 28.071 4.56353 27.8061 3.2321 26.9276C2.94356 26.7393 2.74541 26.5197 2.63069 26.2826C1.93542 24.8044 3.98646 21.6111 8.57521 17.9296C10.0944 16.7094 11.8916 15.437 13.96 14.1575C14.5267 13.8054 15.1107 13.4568 15.7156 13.1047C16.9705 12.3761 18.3159 11.6509 19.7446 10.9363C20.353 10.633 20.9683 10.3262 21.6045 10.0264C23.7459 9.01536 25.8804 8.12289 27.9627 7.35592C29.1516 6.91666 30.3266 6.51923 31.4703 6.17061C31.5433 6.14969 31.6163 6.12529 31.6893 6.10437C33.1737 5.65814 34.6094 5.2886 35.9826 5.00273C36.8238 4.82841 37.6408 4.67851 38.4264 4.57044C43.4219 3.86622 45.7128 4.70291 46.1926 5.72437C46.2899 5.93006 46.3281 6.17758 46.3142 6.45299C46.2968 6.77373 46.2064 7.13629 46.043 7.54418C46.0013 7.64528 45.9805 7.74986 45.9666 7.85096C44.7951 9.1304 43.0951 9.31518 39.657 9.27334C45.2783 11.0409 45.8553 11.8392 45.7858 17.7448C47.5483 12.1076 48.3444 11.5289 54.2333 11.5986C51.9667 10.884 50.5206 10.3297 49.6063 9.53132L49.5993 9.53481ZM33.1841 17.8494H36.5492C36.0347 21.3008 34.081 24.2885 31.3278 26.1745C32.3429 23.8806 33.0034 21.0358 33.1841 17.8494ZM12.2705 17.8494H15.6356C15.8164 21.0358 16.4769 23.8806 17.492 26.1745C14.7387 24.285 12.785 21.3008 12.2705 17.8494ZM24.4099 3.6919C25.119 3.6919 25.9186 4.20787 26.673 5.15961C24.7158 5.8952 22.7204 6.73538 20.7215 7.67317C21.7783 5.11777 23.221 3.6919 24.4099 3.6919ZM17.4885 5.83593C16.9427 7.06656 16.5047 8.46105 16.1849 9.97755C15.0342 10.6086 13.9079 11.2675 12.8198 11.9438C13.6924 9.44068 15.3471 7.30711 17.4885 5.83593Z" fill="#EA4242"/>
</g>
</g>
</svg>
