<svg xmlns="http://www.w3.org/2000/svg" xmlns:xlink="http://www.w3.org/1999/xlink" viewBox="0 0 433.05 97.92"><defs><style>.cls-1{fill:none;}.cls-2{fill:#1d3d8f;}.cls-3{fill:#fff;}.cls-4{clip-path:url(#clip-path);}.cls-5{fill:url(#Adsız_degrade_204);}.cls-6{fill:#00bcef;}</style><clipPath id="clip-path" transform="translate(14.17)"><polygon class="cls-1" points="11.63 11.98 11.63 86.19 33.91 86.19 33.91 18.51 27.39 11.98 11.63 11.98"/></clipPath><linearGradient id="Adsız_degrade_204" x1="-121.7" y1="899.16" x2="-121.32" y2="899" gradientTransform="matrix(256.31, 0, 0, -256.31, 31158.27, 230487.24)" gradientUnits="userSpaceOnUse"><stop offset="0" stop-color="#00bcef"/><stop offset="0.48" stop-color="#00bcef"/><stop offset="0.51" stop-color="#01b6ea"/><stop offset="0.54" stop-color="#02a4db"/><stop offset="0.59" stop-color="#0488c3"/><stop offset="0.64" stop-color="#0860a2"/><stop offset="0.68" stop-color="#0b377f"/><stop offset="0.68" stop-color="#0b367c"/><stop offset="0.73" stop-color="#072556"/><stop offset="0.78" stop-color="#051837"/><stop offset="0.83" stop-color="#030d1f"/><stop offset="0.88" stop-color="#01060d"/><stop offset="0.93" stop-color="#000103"/><stop offset="1"/></linearGradient></defs><g id="katman_2" data-name="katman 2"><g id="katman_1-2" data-name="katman 1"><path class="cls-2" d="M131.78,44.94v38.6H118v-53h13.78v6.89H132q7.42-8,17.29-8,7.83,0,11.87,4.71t4,13.1V83.54H151.4V50.46q0-9.54-8.49-9.54Q138,40.92,131.78,44.94Z" transform="translate(14.17)"/><path class="cls-2" d="M222.85,60H188.71q.22,6.25,3.82,9.75t10.71,3.5a61.35,61.35,0,0,0,16.54-2.12l1.59,10.92a72.52,72.52,0,0,1-20.15,2.55q-14.62,0-21.09-7.16T173.66,57q0-27.57,27.35-27.56,20.25,0,22.27,17.17A55.51,55.51,0,0,1,222.85,60ZM200.16,40.07q-10.59,0-11.45,11.24h20.57a21.86,21.86,0,0,0,.21-4.14Q208.76,40.07,200.16,40.07Z" transform="translate(14.17)"/><path class="cls-2" d="M235.68,68.37v-28h-7.1v-9l7.1-.84,1.7-14.85h12.08V30.53h13.26v9.86H249.46V65.94q0,3.81,1.81,5.72t5.93,1.91a24.18,24.18,0,0,0,4.88-.53l1.17,10.6a52.24,52.24,0,0,1-10.82,1q-9,0-12.88-3.87T235.68,68.37Z" transform="translate(14.17)"/><path class="cls-2" d="M266.75,57q0-13.24,6.3-20.41t21.05-7.15A76.84,76.84,0,0,1,312.65,32l-2.44,11a68.8,68.8,0,0,0-16.11-2.12q-12.72,0-12.72,16.11,0,7.95,3.23,12.09t9.49,4.13a68.8,68.8,0,0,0,16.11-2.12l2.44,10.92A76.89,76.89,0,0,1,294.1,84.6q-14.75,0-21.05-7.11T266.75,57Z" transform="translate(14.17)"/><path class="cls-2" d="M338.1,40.92a83.36,83.36,0,0,0-16.65,2l-2-11a115.35,115.35,0,0,1,21.84-2.43q10.82,0,15.85,3.81t5,14V83.54H348.38V78.23h-.21a20.23,20.23,0,0,1-7,4.93,23.42,23.42,0,0,1-8.69,1.44q-7.74,0-12.09-4.56a16.34,16.34,0,0,1-4.34-11.77q0-8.8,6.52-12.67a30.28,30.28,0,0,1,15.74-3.87h10.07V48c0-2.62-.81-4.45-2.44-5.51S341.7,40.92,338.1,40.92Zm10.28,29.79V60h-9.22q-9.33,0-9.33,7.1a6,6,0,0,0,2.33,5.14A9.59,9.59,0,0,0,338.1,74,16.28,16.28,0,0,0,348.38,70.71Z" transform="translate(14.17)"/><path class="cls-2" d="M405.1,83.54V78.23h-.21a18.59,18.59,0,0,1-6.57,4.62,20.72,20.72,0,0,1-8.27,1.75q-19.41,0-19.41-27.57,0-12.3,4.83-19.93t15.32-7.63q8.79,0,14.1,5.93h.21V9.32h13.78V83.54ZM385.28,57q0,16.22,10.28,16.22a14.09,14.09,0,0,0,9.54-3.39V44.2a14.91,14.91,0,0,0-9.54-3.28Q385.27,40.92,385.28,57Z" transform="translate(14.17)"/><rect class="cls-2" x="14.17" width="97.92" height="97.92"/><rect class="cls-3" x="77.77" y="11.98" width="22.28" height="22.28"/><g class="cls-4"><rect class="cls-5" x="-15.8" y="24.84" width="77.14" height="48.49" transform="translate(-17.1 51.78) rotate(-67.97)"/></g><polygon class="cls-6" points="41.58 11.98 25.8 11.98 25.8 27.71 84.27 86.19 100.05 86.19 100.05 70.45 41.58 11.98"/></g></g></svg>