<svg xmlns="http://www.w3.org/2000/svg" viewBox="0 0 1600 520" role="img" aria-labelledby="title desc">
  <title id="title">Kurumsal sayfa banner görseli</title>
  <desc id="desc">Teknik çizim ve ekip koordinasyonunu anlatan kurumsal banner illüstrasyonu.</desc>
  <defs>
    <linearGradient id="bg" x1="0" x2="1" y1="0" y2="1">
      <stop offset="0%" stop-color="#1d3341"/>
      <stop offset="55%" stop-color="#27475b"/>
      <stop offset="100%" stop-color="#5d4330"/>
    </linearGradient>
  </defs>
  <rect width="1600" height="520" fill="url(#bg)"/>
  <g opacity=".18" stroke="#dcecf6" stroke-width="2">
    <path d="M0 120h1600M0 180h1600M0 240h1600M0 300h1600M0 360h1600M0 420h1600"/>
    <path d="M150 0v520M330 0v520M510 0v520M690 0v520M870 0v520M1050 0v520M1230 0v520M1410 0v520"/>
  </g>
  <g transform="translate(120 85)">
    <rect width="470" height="284" rx="28" fill="#0f2430" opacity=".55"/>
    <rect x="38" y="40" width="394" height="204" rx="20" fill="#f3efe6" opacity=".95"/>
    <path d="M78 194 157 128l84 32 92-74 61 28" fill="none" stroke="#73143a" stroke-width="10" stroke-linecap="round" stroke-linejoin="round"/>
    <path d="M78 225h308" stroke="#b58f56" stroke-width="8" stroke-linecap="round"/>
    <path d="M78 79h168" stroke="#27475b" stroke-width="8" stroke-linecap="round"/>
    <circle cx="358" cy="128" r="38" fill="#c8e2ec"/>
    <path d="M358 108v40M338 128h40" stroke="#27475b" stroke-width="8" stroke-linecap="round"/>
  </g>
  <g transform="translate(874 66)">
    <circle cx="110" cy="82" r="44" fill="#f1d7b1"/>
    <path d="M54 176c10-61 46-91 109-91 74 0 114 38 116 107v92H54Z" fill="#132a38"/>
    <circle cx="328" cy="120" r="42" fill="#f1d7b1"/>
    <path d="M278 214c8-59 40-87 97-87 66 0 102 35 105 100v57H278Z" fill="#73143a"/>
    <path d="M148 232 281 182" stroke="#dcecf6" stroke-width="12" stroke-linecap="round"/>
    <path d="M307 174 392 110" stroke="#dcecf6" stroke-width="12" stroke-linecap="round"/>
    <rect x="430" y="58" width="214" height="134" rx="20" fill="#102633" opacity=".54"/>
    <path d="M466 104h141" stroke="#dcecf6" stroke-width="6"/>
    <path d="M466 138h102" stroke="#dcecf6" stroke-width="6" opacity=".55"/>
  </g>
</svg>
