<svg xmlns="http://www.w3.org/2000/svg" viewBox="0 0 1600 520" role="img" aria-labelledby="title desc">
  <title id="title">Hizmetler sayfası banner görseli</title>
  <desc id="desc">Parsel çizimleri, analiz kartları ve saha verileriyle hizmetler banner görseli.</desc>
  <defs>
    <linearGradient id="bg" x1="0" x2="1" y1="0" y2="1">
      <stop offset="0%" stop-color="#173446"/>
      <stop offset="60%" stop-color="#245066"/>
      <stop offset="100%" stop-color="#8b6940"/>
    </linearGradient>
  </defs>
  <rect width="1600" height="520" fill="url(#bg)"/>
  <g fill="none" stroke="#dbeaf4" stroke-width="2" opacity=".18">
    <path d="M0 392c117-40 246-45 385-16s257 75 398 67 252-63 375-73 255 10 442 54"/>
    <path d="M0 430c128-35 248-39 381-14s258 69 399 64 261-55 386-64 248 13 434 48"/>
  </g>
  <g transform="translate(122 68)">
    <rect width="425" height="270" rx="28" fill="#0f2430" opacity=".56"/>
    <rect x="36" y="36" width="355" height="198" rx="20" fill="#f4f0e8" opacity=".96"/>
    <path d="M70 182 148 126l84 26 83-69 52 24" fill="none" stroke="#73143a" stroke-width="10" stroke-linecap="round" stroke-linejoin="round"/>
    <path d="M70 70h142" stroke="#27475b" stroke-width="8" stroke-linecap="round"/>
    <path d="M70 209h286" stroke="#b58f56" stroke-width="8" stroke-linecap="round"/>
    <circle cx="320" cy="110" r="30" fill="#cde3ed"/>
    <path d="M320 93v34M303 110h34" stroke="#27475b" stroke-width="8" stroke-linecap="round"/>
  </g>
  <g transform="translate(790 80)">
    <rect width="250" height="156" rx="24" fill="#102633" opacity=".56"/>
    <path d="M34 52h152" stroke="#dcecf6" stroke-width="6"/>
    <path d="M34 90h190" stroke="#dcecf6" stroke-width="5" opacity=".54"/>
    <rect x="34" y="112" width="82" height="24" rx="12" fill="#73143a"/>
  </g>
  <g transform="translate(1082 78)">
    <rect width="334" height="236" rx="30" fill="#102633" opacity=".48"/>
    <path d="M38 196 105 116l87 37 69-56 39 19" fill="none" stroke="#f0dcc0" stroke-width="10" stroke-linecap="round" stroke-linejoin="round"/>
    <path d="M42 70h168" stroke="#dcecf6" stroke-width="8"/>
    <path d="M42 104h254" stroke="#dcecf6" stroke-width="5" opacity=".55"/>
    <path d="M42 228h258" stroke="#dcecf6" stroke-width="5" opacity=".42"/>
  </g>
</svg>
