<svg xmlns="http://www.w3.org/2000/svg" viewBox="0 0 1600 900" role="img" aria-labelledby="title desc">
  <title id="title">Harita mühendisliği saha çalışması illüstrasyonu</title>
  <desc id="desc">Total station cihazı, parsel çizgileri ve teknik saha öğeleriyle harita mühendisliği sahnesi.</desc>
  <defs>
    <linearGradient id="bg" x1="0" x2="1" y1="0" y2="1">
      <stop offset="0%" stop-color="#1f3443"/>
      <stop offset="55%" stop-color="#27495d"/>
      <stop offset="100%" stop-color="#876239"/>
    </linearGradient>
    <linearGradient id="ground" x1="0" x2="1" y1="0" y2="0">
      <stop offset="0%" stop-color="#ccb188"/>
      <stop offset="100%" stop-color="#8e6c44"/>
    </linearGradient>
    <linearGradient id="glass" x1="0" x2="1" y1="0" y2="1">
      <stop offset="0%" stop-color="#b9d9e7" stop-opacity=".85"/>
      <stop offset="100%" stop-color="#5f879d" stop-opacity=".55"/>
    </linearGradient>
  </defs>
  <rect width="1600" height="900" fill="url(#bg)"/>
  <g opacity=".18" stroke="#e5f4fb" stroke-width="2">
    <path d="M0 590h1600"/>
    <path d="M0 645h1600"/>
    <path d="M0 700h1600"/>
    <path d="M0 755h1600"/>
    <path d="M0 810h1600"/>
    <path d="M120 520l0 340"/>
    <path d="M310 500l0 360"/>
    <path d="M500 470l0 390"/>
    <path d="M690 430l0 430"/>
    <path d="M880 390l0 470"/>
    <path d="M1070 360l0 500"/>
    <path d="M1260 330l0 530"/>
    <path d="M1450 300l0 560"/>
  </g>
  <path d="M0 620c180-24 333-47 485-35 140 12 262 64 406 67 178 5 304-91 440-106 94-10 178 16 269 61V900H0Z" fill="url(#ground)"/>
  <g fill="none" stroke="#fff2dc" stroke-width="3" opacity=".4">
    <path d="M76 703 382 644l244 63 268-102 258 83 286-90"/>
    <path d="M110 774 410 714l220 59 287-89 252 75 271-86"/>
  </g>
  <g transform="translate(960 216)">
    <rect x="0" y="0" width="350" height="220" rx="26" fill="#17303f" opacity=".62"/>
    <path d="M34 44h282" stroke="#91c6d9" stroke-width="3" opacity=".6"/>
    <path d="M34 88h282" stroke="#91c6d9" stroke-width="3" opacity=".38"/>
    <path d="M34 132h232" stroke="#91c6d9" stroke-width="3" opacity=".38"/>
    <rect x="34" y="156" width="148" height="28" rx="14" fill="#73143a"/>
    <circle cx="276" cy="68" r="16" fill="#b58f56"/>
    <path d="M274 53v30M259 68h30" stroke="#17303f" stroke-width="4" stroke-linecap="round"/>
  </g>
  <g transform="translate(360 235)">
    <circle cx="98" cy="92" r="74" fill="#162836" opacity=".45"/>
    <rect x="38" y="95" width="122" height="42" rx="10" fill="url(#glass)" stroke="#dbeef8" stroke-width="4"/>
    <rect x="62" y="62" width="76" height="34" rx="8" fill="#c9e7f5" stroke="#e6f3fb" stroke-width="4"/>
    <path d="M99 137v213" stroke="#f5efe4" stroke-width="12" stroke-linecap="round"/>
    <path d="M99 176 20 356" stroke="#f5efe4" stroke-width="10" stroke-linecap="round"/>
    <path d="M99 176 178 356" stroke="#f5efe4" stroke-width="10" stroke-linecap="round"/>
    <circle cx="99" cy="178" r="11" fill="#73143a"/>
  </g>
  <g transform="translate(214 548)">
    <circle cx="64" cy="32" r="24" fill="#f3d9b5"/>
    <path d="M31 78c8-30 28-43 58-43 34 0 57 19 59 53v84H31Z" fill="#1b3040"/>
    <path d="M76 80v119" stroke="#f3d9b5" stroke-width="8" stroke-linecap="round"/>
    <path d="M50 115h52" stroke="#f3d9b5" stroke-width="8" stroke-linecap="round"/>
  </g>
  <g transform="translate(1145 575)">
    <rect x="0" y="0" width="266" height="160" rx="22" fill="#f5efe4" opacity=".14"/>
    <path d="M34 112 84 73l50 21 68-57 30 18 0 58Z" fill="#b58f56" opacity=".95"/>
    <path d="M34 123h196" stroke="#f9ecd4" stroke-width="4" opacity=".65"/>
    <path d="M34 42h102" stroke="#f9ecd4" stroke-width="5"/>
    <path d="M34 62h154" stroke="#f9ecd4" stroke-width="5" opacity=".56"/>
  </g>
  <g opacity=".55" fill="#dbeef8">
    <circle cx="1362" cy="154" r="5"/>
    <circle cx="1394" cy="196" r="5"/>
    <circle cx="1334" cy="224" r="5"/>
    <circle cx="514" cy="114" r="4"/>
    <circle cx="564" cy="144" r="4"/>
  </g>
</svg>
