<?xml version="1.0" encoding="UTF-8"?>
<svg width="172px" height="52px" viewBox="0 0 172 52" version="1.1" xmlns="http://www.w3.org/2000/svg" xmlns:xlink="http://www.w3.org/1999/xlink">
    <!-- Generator: Sketch 53 (72520) - https://sketchapp.com -->
    <title>Group 2 Copy</title>
    <desc>Created with Sketch.</desc>
    <g id="V4" stroke="none" stroke-width="1" fill="none" fill-rule="evenodd">
        <g id="home" transform="translate(-90.000000, -42.000000)">
            <g id="Group-2-Copy" transform="translate(90.000000, 42.000000)">
                <polygon id="Shape" fill="#005795" points="171.804738 43.8405644 171.804738 51.6626622 0 51.6626622 0 43.8405644"></polygon>
                <path d="M156.138582,10.8460711 C162.248613,10.8460711 166.315551,11.9665733 168.339938,14.20812 C169.713658,15.7263422 170.400382,18.5280044 170.400382,22.6131067 L170.400382,35.8983644 C170.400382,36.7664622 170.47304,37.4168578 170.617271,37.8511778 C170.834702,38.4652444 171.26848,39.02536 171.918604,39.5317956 L171.918604,40.0740178 L160.260284,40.0740178 L159.718333,37.0370311 C156.970351,39.6044533 153.409849,40.8873511 149.034929,40.8873511 C146.106929,40.8873511 143.738773,40.1998133 141.931547,38.8269067 C139.906618,37.3086844 138.894831,35.1397956 138.894831,32.3199689 C138.894831,28.6400661 140.607096,26.0724603 144.031625,24.616628 L144.154658,24.5651067 C145.601036,23.9502267 148.836476,23.3182667 153.86152,22.6667867 L154.138325,22.6282744 C157.460603,22.1484501 159.121618,21.2576812 159.121618,19.9562178 C159.121618,18.4013956 157.892129,17.6243911 155.433693,17.6243911 C153.011587,17.6243911 151.692089,18.5461689 151.4752,20.3897244 L140.629942,20.3897244 C140.629942,14.0270178 145.79976,10.8460711 156.138582,10.8460711 Z M120.512413,10.8460711 C129.405671,10.8460711 134.10484,13.8282933 134.611276,19.79328 L124.362462,19.79328 C124.145844,17.9497244 123.024529,17.0279467 121.000684,17.0279467 C118.867582,17.0279467 117.801031,17.6965067 117.801031,19.03444 C117.801031,19.9953851 119.309094,20.8164367 122.324185,21.4970767 L123.064834,21.6598556 C127.068909,22.546048 129.742336,23.3337242 131.086289,24.0228844 C134.196204,25.5779778 135.749942,27.8913689 135.749942,30.9636 C135.749942,34.6151956 134.01456,37.2902489 130.544609,38.9901156 C127.9048,40.2543067 124.543022,40.88708 120.45792,40.88708 C111.492547,40.88708 106.738884,37.6703467 106.19612,31.2349822 L116.932933,31.2349822 C116.932933,32.3562978 117.31276,33.2233111 118.072413,33.83792 C118.831253,34.4164711 119.770924,34.7054756 120.891427,34.7054756 C123.278018,34.7054756 124.470907,33.8563556 124.470907,32.15676 C124.470907,31.0357865 123.06174,30.1694969 120.242419,29.5573978 L119.969649,29.4998711 C115.595813,28.5599289 112.794151,27.8010889 111.564662,27.2219956 C108.564276,25.7764311 107.064218,23.4448756 107.064218,20.2267867 C107.064218,16.9475246 108.522897,14.493696 111.440514,12.8663407 L111.564662,12.7980711 C113.914653,11.4967378 116.897418,10.8460711 120.512413,10.8460711 Z M11.1377867,11.6591333 L15.4750222,29.2282178 L15.5845511,29.2282178 L19.9765511,11.6591333 L29.5202044,11.6591333 L33.8585244,29.2282178 L33.9666978,29.2282178 L38.3600533,11.6591333 L49.0421022,11.6591333 L39.98672,40.0737467 L28.9782533,40.0737467 L24.58544,23.4261689 L24.4769956,23.4261689 L20.5185022,40.0737467 L9.51003556,40.0737467 L0.129591111,11.6591333 L11.1377867,11.6591333 Z M64.8215822,11.6591333 L64.8215822,40.0737467 L53.5425467,40.0737467 L53.5425467,11.6591333 L64.8215822,11.6591333 Z M90.7419733,10.8458 C98.08068,10.8458 101.75044,14.9130089 101.75044,23.0466133 L101.75044,40.0737467 L90.4705911,40.0737467 L90.4705911,25.0531067 C90.4705911,21.5099556 89.1516356,19.7393289 86.5120978,19.7385156 C83.6153135,19.7385156 82.1514798,21.6492934 82.1203345,25.4697992 L82.1198267,40.0737467 L70.8402489,40.0737467 L70.8402489,11.6591333 L81.1438267,11.6591333 L81.1438267,16.1061689 C83.7467644,12.5993467 86.9456044,10.8458 90.7419733,10.8458 Z M159.121618,27.4933778 C158.434893,27.8187111 157.223569,28.1619378 155.488187,28.5236 L155.184958,28.5895569 C153.697761,28.9203414 152.644681,29.2661243 152.024089,29.6267018 L151.963471,29.6628089 C151.023258,30.20476 150.553422,31.0183644 150.553422,32.10308 C150.553422,33.6936889 151.746582,34.4885867 154.132902,34.4885867 C157.783684,34.4885867 159.446951,32.15676 159.121618,27.4933778 Z M64.8215822,6.16435298e-14 L64.8215822,8.02597333 L53.5425467,8.02597333 L53.5425467,6.16435298e-14 L64.8215822,6.16435298e-14 Z M168.589089,6.16435298e-14 C170.479818,6.16435298e-14 171.918604,1.43905778 171.918604,3.32951556 C171.918604,5.22051556 170.479818,6.65930222 168.589089,6.65930222 C166.698089,6.65930222 165.259573,5.22051556 165.259573,3.32951556 C165.259573,1.43905778 166.698089,6.16435298e-14 168.589089,6.16435298e-14 Z M168.589089,0.534902222 C167.002818,0.534902222 165.794204,1.74297333 165.794204,3.32951556 C165.794204,4.91632889 167.002818,6.1244 168.589089,6.1244 C170.17536,6.1244 171.383702,4.91632889 171.383702,3.32951556 C171.383702,1.74297333 170.17536,0.534902222 168.589089,0.534902222 Z M168.9212,1.44800444 C169.566987,1.44800444 170.110836,1.78960444 170.110836,2.54573333 C170.110836,3.09551538 169.829598,3.4492833 169.389559,3.59860149 L169.336,3.61553778 L170.083182,5.08197778 L169.354436,5.08197778 L168.644396,3.68006222 L167.943302,3.68006222 L167.943302,5.08197778 L167.32544,5.08197778 L167.32544,1.44800444 L168.9212,1.44800444 Z M168.902493,2.04770222 L167.943302,2.04770222 L167.943302,3.08063556 L168.902493,3.08063556 C169.234876,3.08063556 169.483756,2.92393333 169.483756,2.56416889 C169.483756,2.23835495 169.256987,2.06396721 168.947285,2.04878695 L168.902493,2.04770222 Z" id="Shape" fill="#FE5001"></path>
            </g>
        </g>
    </g>
</svg>