<svg 
 xmlns="http://www.w3.org/2000/svg"
 xmlns:xlink="http://www.w3.org/1999/xlink"
 width="512px" height="513px">
<path fill-rule="evenodd"  fill="rgb(255, 255, 255)"
 d="M99.000,0.000 C106.384,1.358 114.724,1.359 121.000,3.1000 C141.380,12.578 159.844,37.842 175.000,52.1000 C187.665,65.665 200.335,78.335 212.1000,91.000 C219.774,100.537 224.921,118.936 219.1000,133.1000 C211.537,159.905 191.812,158.963 173.000,172.1000 C140.895,196.956 166.202,246.495 182.000,268.1000 C203.711,299.928 234.035,326.256 268.1000,344.000 C281.783,350.487 302.107,358.375 319.1000,351.000 C328.289,347.583 338.301,340.179 342.1000,332.1000 C346.908,327.028 347.192,319.232 351.000,313.000 C359.708,298.747 383.121,282.975 407.1000,291.1000 C423.182,297.507 432.574,310.575 442.1000,321.000 C457.332,335.332 471.668,349.668 485.1000,363.1000 C492.644,370.644 501.113,376.725 505.1000,385.000 C511.349,394.058 513.778,411.712 509.1000,424.000 C503.392,445.496 483.289,458.710 468.1000,473.000 C460.001,481.999 450.999,491.001 441.1000,499.1000 C425.714,511.324 392.325,515.732 366.1000,508.1000 C318.439,496.091 280.223,475.685 244.000,450.1000 C154.282,389.858 80.489,312.417 29.000,212.1000 C14.519,185.039 -11.804,123.463 6.000,81.000 C14.261,61.297 32.847,48.153 46.1000,34.000 C55.880,25.120 64.160,13.730 75.000,7.000 C81.382,3.037 93.695,3.288 99.000,0.000 Z"/>
</svg>