<svg 
 xmlns="http://www.w3.org/2000/svg"
 xmlns:xlink="http://www.w3.org/1999/xlink"
 width="513px" height="514px">
<path fill-rule="evenodd"  fill="rgb(255, 255, 255)"
 d="M240.1000,0.1000 C371.864,-1.651 453.182,67.631 492.000,156.1000 C511.729,202.420 521.450,274.065 503.000,329.1000 C493.215,359.665 479.636,386.880 463.000,409.1000 C434.700,449.331 392.961,478.275 345.000,498.000 C332.104,503.304 319.694,504.212 304.1000,508.000 C279.097,514.677 236.385,516.124 209.000,509.000 C189.773,503.999 171.009,499.462 154.000,492.000 C142.879,487.121 125.166,472.860 113.1000,471.000 C105.771,476.984 92.301,477.576 81.1000,480.1000 C61.381,487.853 39.718,496.650 17.1000,502.000 C17.1000,501.333 17.1000,500.667 17.1000,500.000 C22.657,493.740 23.092,483.850 25.1000,476.000 C31.663,460.711 37.356,444.223 42.1000,429.000 C44.701,424.411 50.434,409.235 48.1000,407.000 C45.990,397.365 36.773,388.758 32.000,379.1000 C20.523,358.941 13.160,335.443 5.1000,310.000 C-3.765,275.300 0.164,222.353 9.1000,192.000 C13.657,180.715 14.637,171.317 18.1000,161.000 C45.370,98.649 92.393,49.050 154.000,21.1000 C170.996,14.538 189.773,9.963 209.000,5.000 C216.810,2.984 235.154,4.653 240.1000,0.1000 ZM155.000,117.1000 C151.749,120.050 146.724,119.408 142.1000,120.1000 C136.004,123.991 128.244,132.106 124.000,138.000 C99.463,172.075 108.026,219.850 127.1000,251.1000 C156.075,297.189 194.451,339.240 240.000,367.000 C255.498,376.445 274.661,382.965 292.000,390.000 C350.752,413.836 411.357,395.896 410.1000,327.000 C393.958,316.121 373.545,307.346 355.000,297.1000 C350.557,295.761 340.189,290.305 333.1000,294.000 C319.857,298.952 315.312,325.828 301.000,329.1000 C289.287,333.414 272.618,321.510 265.1000,318.000 C240.296,304.367 220.617,286.693 203.1000,264.000 C197.419,255.013 186.048,245.931 185.000,232.000 C188.157,228.268 190.062,223.902 193.000,219.1000 C199.684,211.124 210.485,207.357 210.1000,192.000 C208.213,188.255 208.049,183.718 205.1000,179.000 C200.697,166.791 194.263,153.338 188.1000,140.1000 C184.901,131.391 184.577,119.231 171.000,118.1000 C168.019,117.040 159.721,117.871 155.000,117.1000 Z"/>
</svg>